{"asset":{"version":"2.0","generator":"Blockbench 4.12.4 glTF exporter"},"scenes":[{"nodes":[2],"name":"blockbench_export"}],"scene":0,"nodes":[{"translation":[0,0.1875,0.125],"name":"cylinder","mesh":0},{"translation":[0,0.9375,0.125],"name":"cylinder","mesh":1},{"children":[0,1]}],"bufferViews":[{"buffer":0,"byteOffset":0,"byteLength":1512,"target":34962,"byteStride":12},{"buffer":0,"byteOffset":1512,"byteLength":1512,"target":34962,"byteStride":12},{"buffer":0,"byteOffset":3024,"byteLength":1008,"target":34962,"byteStride":8},{"buffer":0,"byteOffset":4032,"byteLength":336,"target":34963},{"buffer":0,"byteOffset":4368,"byteLength":12024,"target":34962,"byteStride":12},{"buffer":0,"byteOffset":16392,"byteLength":12024,"target":34962,"byteStride":12},{"buffer":0,"byteOffset":28416,"byteLength":8016,"target":34962,"byteStride":8},{"buffer":0,"byteOffset":36432,"byteLength":2688,"target":34963}],"buffers":[{"byteLength":39120,"uri":"data:application/octet-stream;base64,"}],"accessors":[{"bufferView":0,"componentType":5126,"count":126,"max":[0.8115662336349487,0.875,0.75],"min":[-0.8115662336349487,-0.1875,-0.9574375152587891],"type":"VEC3"},{"bufferView":1,"componentType":5126,"count":126,"max":[0.9749279618263245,1,1],"min":[-0.9749279618263245,-0.9729359149932861,-0.9009687900543213],"type":"VEC3"},{"bufferView":2,"componentType":5126,"count":126,"max":[0.8324400186538696,0.875],"min":[0,0],"type":"VEC2"},{"bufferView":3,"componentType":5123,"count":168,"max":[125],"min":[0],"type":"SCALAR"},{"bufferView":4,"componentType":5126,"count":1002,"max":[0.9529899954795837,0.75,0.9375],"min":[-0.9375,-0.0625,-1.0154900550842285],"type":"VEC3"},{"bufferView":5,"componentType":5126,"count":1002,"max":[1,1,0.9991735219955444],"min":[-1,-1,-0.9946334362030029],"type":"VEC3"},{"bufferView":6,"componentType":5126,"count":1002,"max":[0.9434318542480469,0.9434318542480469],"min":[0,0],"type":"VEC2"},{"bufferView":7,"componentType":5123,"count":1344,"max":[1001],"min":[0],"type":"SCALAR"}],"materials":[{"pbrMetallicRoughness":{"metallicFactor":0,"roughnessFactor":1},"alphaMode":"MASK","alphaCutoff":0.05,"doubleSided":true}],"meshes":[{"primitives":[{"mode":4,"attributes":{"POSITION":0,"NORMAL":1,"TEXCOORD_0":2},"indices":3,"material":0}]},{"primitives":[{"mode":4,"attributes":{"POSITION":4,"NORMAL":5,"TEXCOORD_0":6},"indices":7,"material":0}]}]}